<?xml version="1.0" standalone="no"?>
<!DOCTYPE svg PUBLIC "-//W3C//DTD SVG 20010904//EN"
 "http://www.w3.org/TR/2001/REC-SVG-20010904/DTD/svg10.dtd">
<svg version="1.0" xmlns="http://www.w3.org/2000/svg"
 width="547.000000pt" height="547.000000pt" viewBox="0 0 547.000000 547.000000"
 preserveAspectRatio="xMidYMid meet">
<metadata>
Created by potrace 1.14, written by Peter Selinger 2001-2017
</metadata>
<g transform="translate(0.000000,547.000000) scale(0.100000,-0.100000)"
fill="#000000" stroke="none">
<path d="M333 5395 c-118 -36 -201 -134 -219 -260 -11 -77 -15 -4641 -4 -4702
5 -29 19 -73 30 -98 21 -45 101 -135 121 -135 6 0 7 -5 3 -12 -5 -8 -2 -9 10
-5 10 4 19 1 22 -8 3 -7 11 -11 19 -9 7 3 22 -7 34 -22 11 -15 21 -22 21 -17
0 5 -5 14 -12 21 -9 9 -9 12 -1 12 7 0 14 -4 17 -8 2 -4 27 -7 55 -7 27 1 48
-2 45 -7 -3 -5 -10 -5 -16 -2 -7 4 -8 2 -4 -4 7 -11 36 -6 36 7 0 3 213 6 474
6 261 0 472 -3 469 -8 -2 -4 -8 -5 -12 -2 -5 2 -17 -5 -27 -18 -19 -22 -19
-22 2 -5 16 14 23 15 34 5 7 -6 10 -7 8 -2 -3 6 -1 15 6 20 13 12 957 14 949
2 -2 -4 -8 -5 -12 -2 -5 2 -17 -5 -27 -18 -19 -22 -19 -22 2 -5 16 14 23 15
34 5 7 -6 10 -7 8 -2 -3 6 -1 15 6 20 14 12 266 13 285 1 10 -6 12 -6 7 2 -11
19 5 14 21 -5 14 -17 14 -17 9 -1 -6 21 4 23 23 6 11 -10 13 -10 7 0 -4 6 -3
12 3 12 5 0 12 -6 14 -12 4 -10 6 -10 6 0 1 6 10 12 21 12 11 0 20 -6 20 -12
0 -9 4 -8 10 2 9 13 11 13 20 0 5 -8 10 -10 10 -4 0 15 462 15 472 0 5 -7 8
-7 8 2 0 6 9 12 21 12 13 0 18 -4 13 -12 -5 -9 -2 -9 9 1 14 11 20 11 34 0 9
-8 14 -9 10 -3 -5 8 22 11 93 11 71 0 98 -3 93 -11 -4 -6 1 -5 10 3 14 11 20
11 34 0 10 -8 14 -9 10 -2 -6 9 12 11 68 10 45 0 75 -5 75 -11 0 -7 3 -7 8 0
10 15 464 15 474 0 5 -8 8 -7 8 2 0 6 9 12 21 12 13 0 18 -4 13 -12 -5 -9 -2
-9 9 1 14 11 20 11 34 0 9 -8 14 -9 10 -3 -5 8 22 11 93 11 71 0 98 -3 93 -11
-4 -6 1 -5 10 3 14 11 20 11 34 0 10 -8 14 -9 10 -2 -6 9 12 11 68 10 45 0 75
-5 75 -11 0 -7 3 -6 8 1 4 7 38 11 92 11 101 -1 168 8 195 26 20 13 49 11 41
-3 -3 -4 1 -8 8 -8 7 0 13 6 13 13 0 7 -4 11 -8 8 -4 -2 -10 -1 -13 4 -2 4 4
14 16 21 11 7 18 9 15 4 -3 -5 -1 -15 5 -23 8 -13 9 -13 5 1 -3 9 -1 22 4 30
8 12 11 12 20 -1 8 -12 9 -10 4 8 -5 18 -2 25 14 29 11 3 18 9 16 13 -7 11 50
101 59 93 3 -3 6 -1 6 5 0 7 -5 12 -10 12 -7 0 -7 7 0 20 6 11 8 25 5 30 -3 6
-2 10 3 10 5 0 8 10 8 23 -1 15 4 22 16 21 10 -1 15 3 12 8 -3 5 -13 7 -21 4
-10 -4 -13 0 -11 12 2 9 8 17 15 17 6 0 15 3 19 7 3 4 -3 6 -15 3 -25 -5 -29
12 -3 18 16 4 16 5 0 6 -10 0 -18 6 -18 12 0 5 6 7 13 3 8 -5 8 -2 -2 9 -11
14 -11 20 0 34 8 9 9 14 3 10 -8 -4 -11 13 -11 53 0 36 5 60 11 60 8 0 8 3 1
8 -6 4 -11 33 -12 64 -1 45 3 58 16 61 14 4 14 5 -1 6 -10 0 -18 6 -18 12 0 5
6 7 13 3 8 -5 8 -2 -2 9 -11 14 -11 20 0 34 8 9 9 14 3 10 -8 -4 -11 13 -11
53 0 36 5 60 11 60 8 0 8 3 1 8 -6 4 -11 33 -12 64 -1 45 3 58 16 61 14 4 14
5 -1 6 -10 0 -18 6 -18 12 0 5 6 7 13 3 8 -5 8 -2 -2 9 -11 14 -11 20 0 34 8
9 9 14 3 10 -8 -4 -11 13 -11 53 0 36 5 60 11 60 8 0 8 3 1 8 -6 4 -11 33 -12
64 -1 45 3 58 16 61 14 4 14 5 -1 6 -10 0 -18 6 -18 12 0 5 6 7 13 3 8 -5 8
-2 -2 9 -11 14 -11 20 0 34 8 9 9 14 3 10 -8 -4 -11 13 -11 53 0 36 5 60 11
60 8 0 8 3 1 8 -6 4 -11 33 -12 64 -1 45 3 58 16 61 14 4 14 5 -1 6 -10 0 -18
6 -18 12 0 5 6 7 13 3 8 -5 8 -2 -2 9 -11 14 -11 20 0 34 8 9 9 14 3 10 -8 -4
-11 13 -11 53 0 36 5 60 11 60 8 0 8 3 1 8 -6 4 -11 33 -12 64 -1 45 3 58 16
61 14 4 14 5 -1 6 -10 0 -18 6 -18 12 0 5 6 7 13 3 8 -5 8 -2 -2 9 -11 14 -11
20 0 34 8 9 9 14 3 10 -8 -4 -11 13 -11 53 0 36 5 60 11 60 8 0 8 3 1 8 -6 4
-11 33 -12 64 -1 45 3 58 16 61 14 4 14 5 -1 6 -10 0 -18 6 -18 12 0 5 6 7 13
3 8 -5 8 -2 -2 9 -11 14 -11 20 0 34 8 9 9 14 3 10 -7 -4 -11 8 -11 38 0 24 3
42 7 40 4 -2 7 2 7 10 0 8 -4 12 -9 9 -4 -3 -8 0 -8 5 0 6 6 11 13 11 9 0 8 3
-2 9 -11 7 -11 9 0 14 10 4 10 6 2 6 -7 1 -13 5 -13 10 0 6 9 8 20 6 11 -2 20
1 20 6 0 5 -8 9 -17 7 -15 -3 -18 5 -18 50 -1 54 7 73 21 51 4 -7 3 -9 -2 -6
-6 3 -10 -5 -10 -17 0 -12 6 -23 13 -23 9 0 10 4 2 13 -7 8 -7 14 1 19 8 5 8
11 -1 21 -9 11 -9 18 -1 26 15 15 15 28 1 28 -5 0 -8 -4 -5 -9 3 -5 0 -14 -7
-19 -10 -9 -13 -3 -12 26 0 20 3 42 8 49 4 6 2 14 -3 16 -6 3 -5 4 2 3 7 -2
13 -8 13 -13 0 -6 4 -15 9 -20 5 -5 6 -3 2 5 -4 7 -2 12 6 12 8 0 6 5 -5 11
-10 6 -14 15 -10 22 11 17 14 77 4 77 -4 0 -8 -12 -7 -27 1 -16 -5 -28 -14
-30 -13 -4 -13 -3 0 6 8 6 10 11 5 11 -6 0 -11 11 -11 25 0 14 5 25 12 25 7 0
10 8 6 22 -3 14 -1 19 6 14 6 -3 13 -2 16 3 4 5 1 13 -5 17 -9 5 -6 11 7 21
16 12 16 14 2 11 -9 -2 -16 1 -15 7 1 5 7 9 12 7 6 -2 5 2 -2 9 -6 6 -9 18 -6
25 3 8 0 14 -5 14 -6 0 -9 -9 -7 -20 2 -11 0 -18 -5 -15 -9 6 -8 -14 2 -31 4
-6 2 -11 -5 -11 -14 0 -17 103 -4 124 4 6 2 14 -3 16 -6 3 -5 4 2 3 7 -2 13
-8 13 -13 0 -6 4 -15 9 -20 5 -5 6 -3 2 5 -4 7 -2 12 6 12 8 0 6 5 -5 11 -10
6 -14 15 -10 22 11 17 14 77 4 77 -4 0 -8 -12 -7 -27 1 -16 -5 -28 -14 -30
-13 -4 -13 -3 0 6 8 6 10 11 5 11 -6 0 -11 11 -11 25 0 14 5 25 12 25 7 0 10
8 6 22 -3 14 -1 19 6 14 6 -3 13 -2 16 3 4 5 1 13 -5 17 -9 5 -6 11 7 21 13
10 14 14 4 11 -8 -1 -15 2 -15 7 0 6 5 9 10 7 6 -2 5 2 -2 9 -6 6 -9 18 -6 25
3 8 0 14 -5 14 -6 0 -9 -9 -7 -20 2 -11 0 -18 -5 -15 -9 6 -8 -14 2 -31 4 -6
2 -11 -5 -11 -14 0 -17 103 -4 124 4 6 2 14 -3 16 -6 3 -5 4 2 3 7 -2 13 -8
13 -13 0 -6 4 -15 9 -20 5 -5 6 -3 2 5 -4 7 -2 12 6 12 8 0 6 5 -5 11 -10 6
-14 15 -10 22 11 17 14 77 4 77 -4 0 -8 -12 -7 -27 1 -16 -5 -28 -14 -30 -13
-4 -13 -3 0 6 8 6 10 11 5 11 -6 0 -11 11 -11 25 0 14 5 25 12 25 7 0 10 8 6
22 -3 14 -1 19 6 14 6 -3 13 -2 16 3 4 5 1 13 -5 17 -9 5 -6 11 7 21 16 12 16
14 2 11 -9 -2 -16 2 -15 7 1 6 7 9 12 7 6 -2 5 2 -2 9 -6 6 -9 18 -6 25 3 8 0
14 -5 14 -6 0 -9 -9 -7 -20 2 -11 0 -18 -5 -15 -9 6 -8 -14 2 -31 4 -6 2 -11
-5 -11 -14 0 -17 103 -4 124 4 6 2 14 -3 16 -6 3 -5 4 2 3 7 -2 13 -8 13 -13
0 -6 4 -15 9 -20 5 -5 6 -3 2 5 -4 7 -2 12 6 12 8 0 6 5 -5 11 -10 6 -14 15
-10 22 11 17 14 77 4 77 -4 0 -8 -12 -7 -27 1 -16 -5 -28 -14 -30 -13 -4 -13
-3 0 6 8 6 10 11 5 11 -6 0 -11 11 -11 25 0 14 5 25 12 25 7 0 10 8 6 22 -3
14 -1 19 6 14 6 -3 13 -2 16 3 4 5 1 13 -5 17 -9 5 -6 11 7 21 13 10 14 14 4
11 -9 -2 -15 2 -15 7 0 6 4 9 10 7 5 -2 5 2 -2 9 -6 6 -9 18 -6 25 3 8 0 14
-5 14 -6 0 -9 -9 -7 -20 2 -11 0 -18 -5 -15 -9 6 -8 -14 2 -31 4 -6 2 -11 -5
-11 -14 0 -17 103 -4 124 4 6 2 14 -3 16 -6 3 -5 4 2 3 7 -2 13 -8 13 -13 0
-6 4 -15 9 -20 5 -5 6 -3 2 5 -4 7 -2 12 6 12 8 0 6 5 -5 11 -10 6 -14 15 -10
22 11 17 14 77 4 77 -4 0 -8 -12 -7 -27 1 -16 -5 -28 -14 -30 -13 -4 -13 -3 0
6 8 6 10 11 5 11 -6 0 -11 11 -11 25 0 14 5 25 12 25 7 0 10 8 6 22 -3 14 -1
19 6 14 6 -3 13 -2 16 3 4 5 1 13 -5 17 -9 5 -6 11 7 21 16 12 16 14 2 11 -9
-2 -16 2 -15 7 1 6 6 9 12 7 5 -2 5 2 -2 9 -6 6 -9 18 -6 25 3 8 0 14 -5 14
-6 0 -9 -9 -7 -20 2 -11 0 -18 -5 -15 -9 6 -8 -14 2 -31 4 -6 2 -11 -5 -11
-14 0 -17 103 -4 124 4 6 2 14 -3 16 -6 3 -5 4 2 3 7 -2 13 -8 13 -13 0 -6 4
-15 9 -20 5 -5 6 -3 2 5 -4 7 -2 12 6 12 8 0 6 5 -5 11 -10 6 -14 15 -10 22
11 17 14 77 4 77 -4 0 -8 -12 -7 -27 1 -16 -5 -28 -14 -30 -13 -4 -13 -3 0 6
8 6 10 11 5 11 -6 0 -11 11 -11 25 0 14 5 25 12 25 7 0 10 8 6 22 -3 14 -1 19
6 14 6 -3 13 -2 16 3 4 5 1 13 -5 17 -9 5 -6 11 7 21 13 10 14 14 4 11 -9 -2
-15 2 -15 7 0 6 4 9 10 7 5 -2 5 2 -2 9 -6 6 -9 18 -6 25 3 8 0 14 -5 14 -6 0
-9 -9 -7 -20 2 -11 0 -18 -5 -15 -9 6 -8 -14 2 -31 4 -6 2 -11 -5 -11 -9 0
-12 21 -12 67 0 55 3 67 15 63 9 -3 8 2 -5 13 -16 13 -17 16 -3 11 10 -3 20
-2 23 4 4 5 12 6 18 2 7 -3 4 3 -6 14 -16 18 -16 22 -2 33 8 7 15 18 15 24 0
6 -5 3 -11 -7 -6 -9 -15 -15 -20 -12 -5 4 -6 12 -2 18 13 21 13 47 0 47 -8 0
-7 4 3 10 12 8 12 10 1 10 -11 0 -11 3 0 18 7 9 10 14 5 10 -5 -4 -17 -3 -26
2 -22 12 -21 66 0 81 12 9 11 10 -4 5 -15 -5 -17 -2 -12 20 5 17 3 23 -4 19
-9 -5 -15 22 -11 48 0 4 -4 7 -9 7 -6 0 -10 7 -10 15 0 8 -4 15 -10 15 -5 0
-10 5 -10 11 0 19 -80 88 -129 112 l-46 22 -2330 1 c-1864 2 -2338 0 -2372
-11z m4956 -382 c-1 -5 0 -10 1 -13 7 -19 7 -41 -1 -46 -6 -4 -6 -10 0 -18 8
-9 7 -13 -2 -13 -8 0 -12 17 -13 49 0 26 3 48 8 48 4 0 7 -3 7 -7z m14 -109
c11 -11 -3 -24 -18 -18 -8 4 -12 10 -9 15 6 11 18 12 27 3z m3 -206 c4 -7 4
-10 -1 -6 -4 4 -13 3 -20 -2 -8 -7 -12 -5 -12 5 0 18 23 20 33 3z m-11 -128
c-3 -5 -12 -10 -18 -10 -7 0 -6 4 3 10 19 12 23 12 15 0z m11 -192 c4 -7 4
-10 -1 -6 -4 4 -13 3 -20 -2 -8 -7 -12 -5 -12 5 0 18 23 20 33 3z m-11 -128
c-3 -5 -12 -10 -18 -10 -7 0 -6 4 3 10 19 12 23 12 15 0z m11 -192 c4 -7 4
-10 -1 -6 -4 4 -13 3 -20 -2 -8 -7 -12 -5 -12 5 0 18 23 20 33 3z m-11 -128
c-3 -5 -12 -10 -18 -10 -7 0 -6 4 3 10 19 12 23 12 15 0z m11 -192 c4 -7 4
-10 -1 -6 -4 4 -13 3 -20 -2 -8 -7 -12 -5 -12 5 0 18 23 20 33 3z m-11 -128
c-3 -5 -12 -10 -18 -10 -7 0 -6 4 3 10 19 12 23 12 15 0z m11 -192 c4 -7 4
-10 -1 -6 -4 4 -13 3 -20 -2 -8 -7 -12 -5 -12 5 0 18 23 20 33 3z m-11 -128
c-3 -5 -12 -10 -18 -10 -7 0 -6 4 3 10 19 12 23 12 15 0z m11 -192 c4 -7 4
-10 -1 -6 -4 4 -13 3 -20 -2 -8 -7 -12 -5 -12 5 0 18 23 20 33 3z m-11 -128
c-3 -5 -12 -10 -18 -10 -7 0 -6 4 3 10 19 12 23 12 15 0z"/>
<path d="M5284 5096 c18 -14 15 -21 -6 -17 -5 0 -8 -3 -8 -9 0 -16 27 -12 34
5 3 9 -3 19 -17 25 -21 11 -21 11 -3 -4z"/>
<path d="M5289 4838 c-8 -26 -5 -36 8 -31 11 4 12 8 3 13 -9 6 -9 9 1 13 10 4
10 6 2 6 -7 1 -13 0 -14 -1z"/>
<path d="M5283 4502 c1 -12 6 -18 15 -15 7 3 10 9 5 12 -4 3 -11 10 -15 15 -4
4 -6 -1 -5 -12z"/>
<path d="M5283 4182 c1 -12 6 -18 15 -15 7 3 10 9 5 12 -4 3 -11 10 -15 15 -4
4 -6 -1 -5 -12z"/>
<path d="M5283 3862 c1 -12 6 -18 15 -15 7 3 10 9 5 12 -4 3 -11 10 -15 15 -4
4 -6 -1 -5 -12z"/>
<path d="M5283 3542 c1 -12 6 -18 15 -15 7 3 10 9 5 12 -4 3 -11 10 -15 15 -4
4 -6 -1 -5 -12z"/>
<path d="M5283 3222 c1 -12 6 -18 15 -15 7 3 10 9 5 12 -4 3 -11 10 -15 15 -4
4 -6 -1 -5 -12z"/>
<path d="M5283 2902 c1 -12 6 -18 15 -15 7 3 10 9 5 12 -4 3 -11 10 -15 15 -4
4 -6 -1 -5 -12z"/>
<path d="M5315 2849 c-4 -6 -5 -12 -2 -15 2 -3 7 2 10 11 7 17 1 20 -8 4z"/>
<path d="M5290 2756 c0 -2 7 -7 16 -10 8 -3 12 -2 9 4 -6 10 -25 14 -25 6z"/>
<path d="M5284 2589 c-3 -6 -2 -15 4 -21 6 -6 12 -6 17 3 5 8 4 10 -3 5 -7 -4
-12 -3 -12 3 0 5 6 12 13 14 9 4 9 6 0 6 -6 1 -15 -4 -19 -10z"/>
<path d="M5280 2416 c0 -2 7 -7 16 -10 8 -3 12 -2 9 4 -6 10 -25 14 -25 6z"/>
<path d="M5290 2370 c0 -5 5 -10 11 -10 5 0 7 5 4 10 -3 6 -8 10 -11 10 -2 0
-4 -4 -4 -10z"/>
<path d="M5290 2330 c-9 -6 -10 -10 -3 -10 6 0 15 5 18 10 8 12 4 12 -15 0z"/>
<path d="M5284 2269 c-3 -6 -2 -15 4 -21 6 -6 12 -6 17 3 5 8 4 10 -3 5 -7 -4
-12 -3 -12 3 0 5 6 12 13 14 9 4 9 6 0 6 -6 1 -15 -4 -19 -10z"/>
<path d="M5286 2128 c3 -5 10 -6 15 -3 13 9 11 12 -6 12 -8 0 -12 -4 -9 -9z"/>
<path d="M5280 2096 c0 -2 7 -7 16 -10 8 -3 12 -2 9 4 -6 10 -25 14 -25 6z"/>
<path d="M5290 2050 c0 -5 5 -10 11 -10 5 0 7 5 4 10 -3 6 -8 10 -11 10 -2 0
-4 -4 -4 -10z"/>
<path d="M5290 2010 c-9 -6 -10 -10 -3 -10 6 0 15 5 18 10 8 12 4 12 -15 0z"/>
<path d="M5284 1949 c-3 -6 -2 -15 4 -21 6 -6 12 -6 17 3 5 8 4 10 -3 5 -7 -4
-12 -3 -12 3 0 5 6 12 13 14 9 4 9 6 0 6 -6 1 -15 -4 -19 -10z"/>
<path d="M5286 1808 c3 -5 10 -6 15 -3 13 9 11 12 -6 12 -8 0 -12 -4 -9 -9z"/>
<path d="M5280 1776 c0 -2 7 -7 16 -10 8 -3 12 -2 9 4 -6 10 -25 14 -25 6z"/>
<path d="M5290 1730 c0 -5 5 -10 11 -10 5 0 7 5 4 10 -3 6 -8 10 -11 10 -2 0
-4 -4 -4 -10z"/>
<path d="M5290 1690 c-9 -6 -10 -10 -3 -10 6 0 15 5 18 10 8 12 4 12 -15 0z"/>
<path d="M5284 1629 c-3 -6 -2 -15 4 -21 6 -6 12 -6 17 3 5 8 4 10 -3 5 -7 -4
-12 -3 -12 3 0 5 6 12 13 14 9 4 9 6 0 6 -6 1 -15 -4 -19 -10z"/>
<path d="M5286 1488 c3 -5 10 -6 15 -3 13 9 11 12 -6 12 -8 0 -12 -4 -9 -9z"/>
<path d="M5280 1456 c0 -2 7 -7 16 -10 8 -3 12 -2 9 4 -6 10 -25 14 -25 6z"/>
<path d="M5290 1410 c0 -5 5 -10 11 -10 5 0 7 5 4 10 -3 6 -8 10 -11 10 -2 0
-4 -4 -4 -10z"/>
<path d="M5290 1370 c-9 -6 -10 -10 -3 -10 6 0 15 5 18 10 8 12 4 12 -15 0z"/>
<path d="M5284 1309 c-3 -6 -2 -15 4 -21 6 -6 12 -6 17 3 5 8 4 10 -3 5 -7 -4
-12 -3 -12 3 0 5 6 12 13 14 9 4 9 6 0 6 -6 1 -15 -4 -19 -10z"/>
<path d="M5286 1168 c3 -5 10 -6 15 -3 13 9 11 12 -6 12 -8 0 -12 -4 -9 -9z"/>
<path d="M5280 1136 c0 -2 7 -7 16 -10 8 -3 12 -2 9 4 -6 10 -25 14 -25 6z"/>
<path d="M5290 1090 c0 -5 5 -10 11 -10 5 0 7 5 4 10 -3 6 -8 10 -11 10 -2 0
-4 -4 -4 -10z"/>
<path d="M5290 1050 c-9 -6 -10 -10 -3 -10 6 0 15 5 18 10 8 12 4 12 -15 0z"/>
<path d="M5284 989 c-3 -6 -2 -15 4 -21 6 -6 12 -6 17 3 5 8 4 10 -3 5 -7 -4
-12 -3 -12 3 0 5 6 12 13 14 9 4 9 6 0 6 -6 1 -15 -4 -19 -10z"/>
<path d="M5286 848 c3 -5 10 -6 15 -3 13 9 11 12 -6 12 -8 0 -12 -4 -9 -9z"/>
<path d="M5280 816 c0 -2 7 -7 16 -10 8 -3 12 -2 9 4 -6 10 -25 14 -25 6z"/>
<path d="M5290 770 c0 -5 5 -10 11 -10 5 0 7 5 4 10 -3 6 -8 10 -11 10 -2 0
-4 -4 -4 -10z"/>
<path d="M5290 730 c-9 -6 -10 -10 -3 -10 6 0 15 5 18 10 8 12 4 12 -15 0z"/>
<path d="M5284 669 c-3 -6 -2 -15 4 -21 6 -6 12 -6 17 3 5 8 4 10 -3 5 -7 -4
-12 -3 -12 3 0 5 6 12 13 14 9 4 9 6 0 6 -6 1 -15 -4 -19 -10z"/>
<path d="M5290 450 c0 -5 5 -10 11 -10 5 0 7 5 4 10 -3 6 -8 10 -11 10 -2 0
-4 -4 -4 -10z"/>
<path d="M5270 401 c0 -6 4 -12 8 -15 5 -3 9 1 9 9 0 8 -4 15 -9 15 -4 0 -8
-4 -8 -9z"/>
<path d="M5276 352 c-3 -5 1 -9 9 -9 8 0 12 4 9 9 -3 4 -7 8 -9 8 -2 0 -6 -4
-9 -8z"/>
<path d="M5221 296 c-9 -11 -9 -16 0 -22 8 -4 9 -3 5 5 -4 7 2 15 16 20 15 7
17 10 7 10 -9 1 -22 -5 -28 -13z"/>
<path d="M5193 215 c0 -8 4 -12 9 -9 5 3 6 10 3 15 -9 13 -12 11 -12 -6z"/>
<path d="M5070 160 c-8 -5 -12 -12 -9 -15 4 -3 12 1 19 10 14 17 11 19 -10 5z"/>
<path d="M390 132 c0 -5 7 -9 15 -9 8 0 12 4 9 9 -7 10 -24 10 -24 0z"/>
<path d="M430 135 c0 -5 5 -17 10 -25 5 -8 10 -10 10 -5 0 6 -5 17 -10 25 -5
8 -10 11 -10 5z"/>
<path d="M517 128 c3 -5 11 -7 18 -4 7 2 17 0 22 -5 6 -6 10 -5 10 4 0 8 -11
13 -28 13 -15 0 -25 -4 -22 -8z"/>
<path d="M586 127 c3 -10 9 -15 12 -12 3 3 0 11 -7 18 -10 9 -11 8 -5 -6z"/>
<path d="M651 119 c12 -22 21 -25 13 -4 -4 10 0 13 15 10 12 -2 27 -7 34 -11
9 -5 9 -4 0 6 -6 7 -25 13 -42 15 -27 2 -29 0 -20 -16z"/>
<path d="M731 123 c7 -12 15 -20 18 -17 3 2 -3 12 -13 22 -17 16 -18 16 -5 -5z"/>
<path d="M775 130 c3 -5 11 -10 16 -10 6 0 7 5 4 10 -3 6 -11 10 -16 10 -6 0
-7 -4 -4 -10z"/>
<path d="M840 125 c-7 -9 -11 -17 -9 -20 3 -2 10 5 17 15 14 24 10 26 -8 5z"/>
<path d="M912 115 c-17 -20 -17 -20 5 -2 14 12 23 15 28 8 3 -6 12 -11 18 -11
8 0 7 3 -2 9 -11 7 -11 9 0 14 8 3 4 4 -9 4 -13 -1 -31 -10 -40 -22z"/>
<path d="M984 120 c0 -13 4 -16 10 -10 7 7 7 13 0 20 -6 6 -10 3 -10 -10z"/>
<path d="M1056 129 c3 -5 9 -7 14 -4 4 3 11 0 13 -5 3 -6 4 -5 3 1 -1 7 -10
13 -19 15 -9 1 -15 -2 -11 -7z"/>
<path d="M1103 116 c-1 -12 1 -15 4 -8 3 6 8 10 12 8 4 -3 8 1 8 8 0 22 -23
14 -24 -8z"/>
<path d="M1144 120 c0 -13 4 -16 10 -10 7 7 7 13 0 20 -6 6 -10 3 -10 -10z"/>
<path d="M1216 129 c3 -5 9 -7 14 -4 4 3 11 0 13 -5 3 -6 4 -5 3 1 -1 7 -10
13 -19 15 -9 1 -15 -2 -11 -7z"/>
<path d="M1263 119 c-2 -23 3 -25 10 -4 4 8 3 16 -1 19 -4 3 -9 -4 -9 -15z"/>
<path d="M1320 125 c-7 -9 -11 -17 -9 -20 3 -2 10 5 17 15 14 24 10 26 -8 5z"/>
<path d="M1459 123 c-7 -7 -6 -14 1 -18 6 -4 9 -1 8 6 -3 14 30 19 48 7 6 -4
11 -2 11 5 0 16 -55 16 -68 0z"/>
<path d="M1546 127 c3 -10 9 -15 12 -12 3 3 0 11 -7 18 -10 9 -11 8 -5 -6z"/>
<path d="M1611 119 c12 -22 21 -25 13 -4 -4 10 0 13 15 10 12 -2 27 -7 34 -11
9 -5 9 -4 0 6 -6 7 -25 13 -42 15 -27 2 -29 0 -20 -16z"/>
<path d="M1691 123 c7 -12 15 -20 18 -17 3 2 -3 12 -13 22 -17 16 -18 16 -5
-5z"/>
<path d="M1735 130 c3 -5 11 -10 16 -10 6 0 7 5 4 10 -3 6 -11 10 -16 10 -6 0
-7 -4 -4 -10z"/>
<path d="M1800 125 c-7 -9 -11 -17 -9 -20 3 -2 10 5 17 15 14 24 10 26 -8 5z"/>
<path d="M1872 115 c-17 -20 -17 -20 5 -2 14 12 23 15 28 8 3 -6 12 -11 18
-11 8 0 7 3 -2 9 -11 7 -11 9 0 14 8 3 4 4 -9 4 -13 -1 -31 -10 -40 -22z"/>
<path d="M1944 120 c0 -13 4 -16 10 -10 7 7 7 13 0 20 -6 6 -10 3 -10 -10z"/>
<path d="M2016 129 c3 -5 9 -7 14 -4 4 3 11 0 13 -5 3 -6 4 -5 3 1 -1 7 -10
13 -19 15 -9 1 -15 -2 -11 -7z"/>
<path d="M2063 116 c-1 -12 1 -15 4 -8 3 6 8 10 12 8 4 -3 8 1 8 8 0 22 -23
14 -24 -8z"/>
<path d="M2104 120 c0 -13 4 -16 10 -10 7 7 7 13 0 20 -6 6 -10 3 -10 -10z"/>
<path d="M2176 129 c3 -5 9 -7 14 -4 4 3 11 0 13 -5 3 -6 4 -5 3 1 -1 7 -10
13 -19 15 -9 1 -15 -2 -11 -7z"/>
<path d="M2223 119 c-2 -23 3 -25 10 -4 4 8 3 16 -1 19 -4 3 -9 -4 -9 -15z"/>
<path d="M2280 125 c-7 -9 -11 -17 -9 -20 3 -2 10 5 17 15 14 24 10 26 -8 5z"/>
<path d="M2419 123 c-7 -7 -6 -14 1 -18 6 -4 9 -1 8 6 -3 14 31 19 48 6 7 -4
14 -2 17 5 6 17 -61 18 -74 1z"/>
<path d="M2610 131 c0 -6 4 -13 10 -16 6 -3 7 1 4 9 -7 18 -14 21 -14 7z"/>
<path d="M2632 135 c3 -3 16 -8 28 -10 12 -2 20 -1 16 2 -4 4 -16 8 -28 10
-12 2 -19 1 -16 -2z"/>
<path d="M2790 129 c0 -5 5 -7 10 -4 6 3 10 8 10 11 0 2 -4 4 -10 4 -5 0 -10
-5 -10 -11z"/>
<path d="M2870 136 c0 -2 9 -6 20 -9 11 -3 18 -1 14 4 -5 9 -34 13 -34 5z"/>
<path d="M2930 130 c0 -5 5 -10 11 -10 5 0 7 5 4 10 -3 6 -8 10 -11 10 -2 0
-4 -4 -4 -10z"/>
<path d="M2975 130 c-3 -5 -1 -10 4 -10 6 0 11 5 11 10 0 6 -2 10 -4 10 -3 0
-8 -4 -11 -10z"/>
<path d="M3035 129 c-4 -6 -4 -13 -1 -16 3 -4 6 -1 6 6 0 8 6 11 16 7 8 -3 12
-2 9 4 -8 13 -22 13 -30 -1z"/>
<path d="M3090 130 c0 -5 5 -10 11 -10 5 0 7 5 4 10 -3 6 -8 10 -11 10 -2 0
-4 -4 -4 -10z"/>
<path d="M3135 130 c-3 -5 -1 -10 4 -10 6 0 11 5 11 10 0 6 -2 10 -4 10 -3 0
-8 -4 -11 -10z"/>
<path d="M3210 130 c0 -5 5 -10 11 -10 5 0 7 5 4 10 -3 6 -8 10 -11 10 -2 0
-4 -4 -4 -10z"/>
<path d="M3290 130 c0 -5 5 -10 11 -10 5 0 7 5 4 10 -3 6 -8 10 -11 10 -2 0
-4 -4 -4 -10z"/>
<path d="M3440 136 c0 -2 7 -7 16 -10 8 -3 12 -2 9 4 -6 10 -25 14 -25 6z"/>
<path d="M3490 130 c0 -5 5 -10 11 -10 5 0 7 5 4 10 -3 6 -8 10 -11 10 -2 0
-4 -4 -4 -10z"/>
<path d="M3535 130 c-3 -5 -1 -10 4 -10 6 0 11 5 11 10 0 6 -2 10 -4 10 -3 0
-8 -4 -11 -10z"/>
<path d="M3690 130 c0 -5 5 -10 11 -10 5 0 7 5 4 10 -3 6 -8 10 -11 10 -2 0
-4 -4 -4 -10z"/>
<path d="M3770 130 c0 -5 5 -10 11 -10 5 0 7 5 4 10 -3 6 -8 10 -11 10 -2 0
-4 -4 -4 -10z"/>
<path d="M3830 136 c0 -2 9 -6 20 -9 11 -3 18 -1 14 4 -5 9 -34 13 -34 5z"/>
<path d="M3890 130 c0 -5 5 -10 11 -10 5 0 7 5 4 10 -3 6 -8 10 -11 10 -2 0
-4 -4 -4 -10z"/>
<path d="M3935 130 c-3 -5 -1 -10 4 -10 6 0 11 5 11 10 0 6 -2 10 -4 10 -3 0
-8 -4 -11 -10z"/>
<path d="M3995 129 c-4 -6 -4 -13 -1 -16 3 -4 6 -1 6 6 0 8 6 11 16 7 8 -3 12
-2 9 4 -8 13 -22 13 -30 -1z"/>
<path d="M4050 130 c0 -5 5 -10 11 -10 5 0 7 5 4 10 -3 6 -8 10 -11 10 -2 0
-4 -4 -4 -10z"/>
<path d="M4095 130 c-3 -5 -1 -10 4 -10 6 0 11 5 11 10 0 6 -2 10 -4 10 -3 0
-8 -4 -11 -10z"/>
<path d="M4170 130 c0 -5 5 -10 11 -10 5 0 7 5 4 10 -3 6 -8 10 -11 10 -2 0
-4 -4 -4 -10z"/>
<path d="M4250 130 c0 -5 5 -10 11 -10 5 0 7 5 4 10 -3 6 -8 10 -11 10 -2 0
-4 -4 -4 -10z"/>
<path d="M4400 136 c0 -2 7 -7 16 -10 8 -3 12 -2 9 4 -6 10 -25 14 -25 6z"/>
<path d="M4450 130 c0 -5 5 -10 11 -10 5 0 7 5 4 10 -3 6 -8 10 -11 10 -2 0
-4 -4 -4 -10z"/>
<path d="M4495 130 c-3 -5 -1 -10 4 -10 6 0 11 5 11 10 0 6 -2 10 -4 10 -3 0
-8 -4 -11 -10z"/>
<path d="M4650 130 c0 -5 5 -10 11 -10 5 0 7 5 4 10 -3 6 -8 10 -11 10 -2 0
-4 -4 -4 -10z"/>
<path d="M4730 130 c0 -5 5 -10 11 -10 5 0 7 5 4 10 -3 6 -8 10 -11 10 -2 0
-4 -4 -4 -10z"/>
<path d="M4790 136 c0 -2 9 -6 20 -9 11 -3 18 -1 14 4 -5 9 -34 13 -34 5z"/>
<path d="M4850 130 c0 -5 5 -10 11 -10 5 0 7 5 4 10 -3 6 -8 10 -11 10 -2 0
-4 -4 -4 -10z"/>
<path d="M4895 130 c-3 -5 -1 -10 4 -10 6 0 11 5 11 10 0 6 -2 10 -4 10 -3 0
-8 -4 -11 -10z"/>
<path d="M4957 133 c-10 -9 -9 -23 1 -23 5 0 9 7 9 15 0 17 -1 18 -10 8z"/>
<path d="M2505 119 c-4 -6 -5 -12 -2 -15 2 -3 7 2 10 11 7 17 1 20 -8 4z"/>
<path d="M2560 120 c-9 -6 -10 -10 -3 -10 6 0 15 5 18 10 8 12 4 12 -15 0z"/>
<path d="M495 110 c3 -5 8 -10 11 -10 2 0 4 5 4 10 0 6 -5 10 -11 10 -5 0 -7
-4 -4 -10z"/>
<path d="M865 110 c3 -5 8 -10 11 -10 2 0 4 5 4 10 0 6 -5 10 -11 10 -5 0 -7
-4 -4 -10z"/>
<path d="M1026 112 c-2 -4 4 -8 14 -8 10 0 16 4 14 8 -3 4 -9 8 -14 8 -5 0
-11 -4 -14 -8z"/>
<path d="M1186 112 c-2 -4 4 -8 14 -8 10 0 16 4 14 8 -3 4 -9 8 -14 8 -5 0
-11 -4 -14 -8z"/>
<path d="M1345 110 c3 -5 8 -10 11 -10 2 0 4 5 4 10 0 6 -5 10 -11 10 -5 0 -7
-4 -4 -10z"/>
<path d="M1825 110 c3 -5 8 -10 11 -10 2 0 4 5 4 10 0 6 -5 10 -11 10 -5 0 -7
-4 -4 -10z"/>
<path d="M1986 112 c-2 -4 4 -8 14 -8 10 0 16 4 14 8 -3 4 -9 8 -14 8 -5 0
-11 -4 -14 -8z"/>
<path d="M2146 112 c-2 -4 4 -8 14 -8 10 0 16 4 14 8 -3 4 -9 8 -14 8 -5 0
-11 -4 -14 -8z"/>
<path d="M2305 110 c3 -5 8 -10 11 -10 2 0 4 5 4 10 0 6 -5 10 -11 10 -5 0 -7
-4 -4 -10z"/>
<path d="M2685 110 c-3 -6 1 -7 9 -4 18 7 21 14 7 14 -6 0 -13 -4 -16 -10z"/>
<path d="M2745 110 c-3 -6 1 -7 9 -4 18 7 21 14 7 14 -6 0 -13 -4 -16 -10z"/>
</g>
</svg>
